<svg width="20" height="22" viewBox="0 0 20 22" fill="currentColor" xmlns="http://www.w3.org/2000/svg">
<path d="M18.1977 0.25H6.95532C5.97049 0.25 5.17984 1.04758 5.17984 2.02548V4.83435H7.24661V2.45548H17.9134V17.4777H7.24661V13.7742H5.17984V19.9745C5.17984 20.9594 5.97742 21.75 6.95532 21.75H18.2047C19.1895 21.75 19.9802 20.9524 19.9802 19.9745V2.02548C19.9802 1.04065 19.1826 0.25 18.2047 0.25H18.1977ZM12.4482 20.9177C10.7837 20.9177 10.7837 18.3308 12.4482 18.3308C14.1127 18.3308 14.1127 20.9177 12.4482 20.9177Z" fill="#09CE74"/>
<path d="M10.0694 10.9653V7.65019C10.0694 6.57519 9.20242 5.70825 8.12742 5.70825H1.96177C0.886772 5.70825 0.0198364 6.57519 0.0198364 7.65019V10.9653C0.0198364 12.0403 0.886772 12.9073 1.96177 12.9073H8.12742C9.20242 12.9073 10.0694 12.0403 10.0694 10.9653ZM2.81484 9.48116C2.57903 9.48116 2.39177 9.2939 2.39177 9.05809C2.39177 8.82228 2.57903 8.63503 2.81484 8.63503C3.05064 8.63503 3.2379 8.82228 3.2379 9.05809C3.2379 9.2939 3.05064 9.48116 2.81484 9.48116ZM4.89548 9.48116C4.65968 9.48116 4.47242 9.2939 4.47242 9.05809C4.47242 8.82228 4.65968 8.63503 4.89548 8.63503C5.13129 8.63503 5.31855 8.82228 5.31855 9.05809C5.31855 9.2939 5.13129 9.48116 4.89548 9.48116ZM6.97613 9.48116C6.74032 9.48116 6.55306 9.2939 6.55306 9.05809C6.55306 8.82228 6.74032 8.63503 6.97613 8.63503C7.21193 8.63503 7.39919 8.82228 7.39919 9.05809C7.39919 9.2939 7.21193 9.48116 6.97613 9.48116Z" fill="#09CE74"/>
</svg>
