<svg width="20" height="21" viewBox="0 0 20 21" fill="none" xmlns="http://www.w3.org/2000/svg">
<path d="M18.1779 0H6.93546C5.95062 0 5.15997 0.754574 5.15997 1.67975V4.33716H7.22675V2.08656H17.8935V16.2988H7.22675V12.7949H5.15997V18.6609C5.15997 19.5927 5.95755 20.3407 6.93546 20.3407H18.1848C19.1696 20.3407 19.9603 19.5861 19.9603 18.6609V1.67975C19.9603 0.748012 19.1627 0 18.1848 0H18.1779ZM12.4284 19.5533C10.7638 19.5533 10.7638 17.1059 12.4284 17.1059C14.0929 17.1059 14.0929 19.5533 12.4284 19.5533Z" fill="#2C3330"/>
<path d="M10.0495 10.1377V7.00129C10.0495 5.98425 9.18258 5.16406 8.10758 5.16406H1.94194C0.866935 5.16406 0 5.98425 0 7.00129V10.1377C0 11.1547 0.866935 11.9749 1.94194 11.9749H8.10758C9.18258 11.9749 10.0495 11.1547 10.0495 10.1377ZM2.795 8.73353C2.55919 8.73353 2.37194 8.55636 2.37194 8.33327C2.37194 8.11018 2.55919 7.93302 2.795 7.93302C3.03081 7.93302 3.21806 8.11018 3.21806 8.33327C3.21806 8.55636 3.03081 8.73353 2.795 8.73353ZM4.87565 8.73353C4.63984 8.73353 4.45258 8.55636 4.45258 8.33327C4.45258 8.11018 4.63984 7.93302 4.87565 7.93302C5.11145 7.93302 5.29871 8.11018 5.29871 8.33327C5.29871 8.55636 5.11145 8.73353 4.87565 8.73353ZM6.95629 8.73353C6.72048 8.73353 6.53323 8.55636 6.53323 8.33327C6.53323 8.11018 6.72048 7.93302 6.95629 7.93302C7.1921 7.93302 7.37935 8.11018 7.37935 8.33327C7.37935 8.55636 7.1921 8.73353 6.95629 8.73353Z" fill="#2C3330"/>
</svg>
