<svg width="31" height="31" viewBox="0 0 31 31" fill="none" xmlns="http://www.w3.org/2000/svg">
<path d="M24.4021 14.2224C24.7864 14.2224 25.1728 14.2451 25.5571 14.2884C25.5998 14.6779 25.6222 15.0696 25.6222 15.4592C25.6222 21.2554 20.9695 25.9715 15.2513 25.9715C14.867 25.9715 14.4806 25.9488 14.0963 25.9055C14.0536 25.516 14.0312 25.1243 14.0312 24.7347C14.0312 23.9577 14.1166 23.2032 14.2752 22.4736C14.4704 21.8284 14.686 21.1585 14.9178 20.4886C16.5304 16.8031 20.1744 14.2224 24.4021 14.2224Z" fill="#09CE74"/>
<path d="M15.0233 -0.0001281C6.81814 0.123546 0.113663 6.92565 -0.000213347 15.2428C-0.0652856 20.1197 2.08617 24.6523 5.88069 27.6535C7.22891 28.7192 8.72963 29.5416 10.3422 30.0961C11.7982 30.597 13.3213 30.8711 14.8729 30.9082L14.9928 30.9123C15.0782 30.9144 15.1637 30.9185 15.2511 30.9185C23.6617 30.9185 30.5024 23.9845 30.5024 15.4592C30.5024 15.3726 30.5004 15.2881 30.4963 15.2036L30.4922 15.0779C30.4536 13.5051 30.1852 11.9613 29.689 10.4854L29.5914 10.1968L29.3067 10.0979C27.8507 9.59702 26.3276 9.32287 24.776 9.28577L24.6581 9.28165C24.5727 9.27959 24.4852 9.27546 24.3978 9.27546C16.2414 9.27546 9.5593 15.7993 9.1648 23.9701C8.25786 23.3022 7.45259 22.4818 6.80187 21.5584C5.54109 19.7692 4.87614 17.6606 4.87614 15.4592C4.87614 9.66298 9.5288 4.94685 15.247 4.94685C15.8794 4.94685 16.6725 5.12618 17.4778 5.37765C20.0725 6.19184 22.8971 5.4601 24.7313 3.42772L24.772 3.38237C22.043 1.15829 18.6287 -0.0516592 15.0233 -0.0001281ZM14.275 22.4715C14.4255 21.781 14.641 21.1173 14.9176 20.4866C16.5302 16.8011 20.1742 14.2204 24.4019 14.2204C24.7862 14.2204 25.1726 14.2431 25.5569 14.2863C25.5996 14.6759 25.622 15.0676 25.622 15.4571C25.622 21.2533 20.9693 25.9695 15.2511 25.9695C14.8668 25.9695 14.4804 25.9468 14.0961 25.9035C14.0534 25.5139 14.031 25.1223 14.031 24.7327C14.031 23.9556 14.1164 23.2012 14.275 22.4715Z" fill="#2C3330"/>
</svg>
