<svg width="155" height="31" viewBox="0 0 155 31" fill="none" xmlns="http://www.w3.org/2000/svg">
<g clip-path="url(#clip0_184_67)">
<path d="M40.1231 25.7531C40.2024 26.4601 40.5583 27.0352 41.1948 27.4804C41.8252 27.9257 42.604 28.1483 43.5313 28.1483C44.4586 28.1483 45.1866 27.9174 45.7824 27.4557C46.368 27.0063 46.6588 26.4354 46.6588 25.7449C46.6588 24.605 45.7539 23.8094 43.9421 23.36L42.5511 23.0013C41.4103 22.7169 40.5827 22.317 40.0723 21.8038C39.5598 21.2967 39.3057 20.6247 39.3057 19.7858C39.3057 18.782 39.69 17.9657 40.4607 17.3329C41.2375 16.6898 42.24 16.3662 43.4723 16.3662C44.6314 16.3662 45.6014 16.6775 46.3823 17.2979C47.1631 17.9142 47.5861 18.6954 47.6471 19.6415H46.4839C46.3884 18.9799 46.0671 18.4481 45.5221 18.042C44.971 17.638 44.2776 17.4339 43.4377 17.4339C42.5979 17.4339 41.8557 17.6545 41.3046 18.0915C40.7596 18.5243 40.4871 19.0767 40.4871 19.7508C40.4871 20.2867 40.6905 20.7257 41.0951 21.0679C41.4998 21.4039 42.1668 21.6883 43.0941 21.9233L44.3 22.2304C45.5546 22.5438 46.4595 22.9684 47.0167 23.5043C47.5678 24.034 47.8423 24.739 47.8423 25.6171C47.8423 26.6951 47.4397 27.5629 46.6365 28.2245C45.8271 28.8862 44.7575 29.216 43.4316 29.216C42.1058 29.216 41.1317 28.8965 40.3102 28.2575C39.4846 27.6185 39.0332 26.7837 38.96 25.7531H40.1231Z" fill="#2C3330"/>
<path d="M50.2622 27.831C49.52 26.9818 49.1478 25.8213 49.1478 24.3516C49.1478 22.8819 49.52 21.7215 50.2622 20.8722C50.9983 20.023 52.0029 19.5984 53.2738 19.5984C54.5448 19.5984 55.5513 20.023 56.2936 20.8722C57.0358 21.7215 57.4079 22.8819 57.4079 24.3516C57.4079 25.8213 57.0358 26.9818 56.2936 27.831C55.5513 28.6864 54.5448 29.1131 53.2738 29.1131C52.0029 29.1131 50.9983 28.6864 50.2622 27.831ZM55.4659 27.0951C55.9946 26.4335 56.259 25.5183 56.259 24.3516C56.259 23.1849 55.9946 22.2677 55.4659 21.6081C54.9372 20.9403 54.2072 20.6084 53.2738 20.6084C52.3404 20.6084 51.6084 20.9423 51.0817 21.6081C50.553 22.2698 50.2886 23.1849 50.2886 24.3516C50.2886 25.5183 50.553 26.4355 51.0817 27.0951C51.6104 27.763 52.3404 28.0948 53.2738 28.0948C54.2072 28.0948 54.9393 27.7609 55.4659 27.0951Z" fill="#2C3330"/>
<path d="M59.2402 16.0837H60.3444V28.9603H59.2402V16.0837Z" fill="#2C3330"/>
<path d="M69.971 28.9584H68.9176V27.2991H68.8159C68.5902 27.8701 68.212 28.3132 67.6772 28.6327C67.1485 28.9522 66.5221 29.1109 65.7962 29.1109C64.7835 29.1109 63.9945 28.8121 63.4251 28.2122C62.8517 27.6145 62.5649 26.7879 62.5649 25.7326V19.7488H63.6691V25.4522C63.6691 26.3077 63.8766 26.959 64.2934 27.4104C64.7042 27.8598 65.298 28.0865 66.0727 28.0865C66.9207 28.0865 67.5999 27.8268 68.1062 27.3094C68.6126 26.792 68.8647 26.0953 68.8647 25.2234V19.7508H69.9689V28.9584H69.971Z" fill="#2C3330"/>
<path d="M73.861 18.512V19.7508H76.0206V20.6989H73.861V26.4107C73.861 26.9754 73.9729 27.3815 74.1986 27.633C74.4243 27.8886 74.7924 28.0184 75.3028 28.0184C75.5672 28.0184 75.7929 28.0102 75.9779 27.9937V28.9522C75.7522 28.9913 75.4878 29.0119 75.1849 29.0119C74.3125 29.0119 73.6923 28.8306 73.3201 28.4657C72.9439 28.1071 72.7548 27.5072 72.7548 26.6704V20.7031H71.2866V19.7549H72.7548V17.3948C73.3649 17.3948 73.859 17.8957 73.859 18.514L73.861 18.512Z" fill="#2C3330"/>
<path d="M77.6738 17.4506C77.5112 17.2857 77.4298 17.0899 77.4298 16.8611C77.4298 16.6323 77.5112 16.4385 77.6738 16.2798C77.8304 16.1149 78.0216 16.0325 78.2473 16.0325C78.473 16.0325 78.6662 16.1149 78.8289 16.2798C78.9915 16.4406 79.0729 16.6323 79.0729 16.8611C79.0729 17.0899 78.9915 17.2857 78.8289 17.4506C78.6723 17.6155 78.4771 17.698 78.2473 17.698C78.0175 17.698 77.8304 17.6155 77.6738 17.4506ZM77.6982 19.751H78.8024V28.9585H77.6982V19.751Z" fill="#2C3330"/>
<path d="M81.7165 27.831C80.9743 26.9818 80.6022 25.8213 80.6022 24.3516C80.6022 22.8819 80.9743 21.7215 81.7165 20.8722C82.4527 20.023 83.4572 19.5984 84.7282 19.5984C85.9991 19.5984 87.0057 20.023 87.7479 20.8722C88.4902 21.7215 88.8623 22.8819 88.8623 24.3516C88.8623 25.8213 88.4902 26.9818 87.7479 27.831C87.0057 28.6864 85.9991 29.1131 84.7282 29.1131C83.4572 29.1131 82.4527 28.6864 81.7165 27.831ZM86.9203 27.0951C87.449 26.4335 87.7133 25.5183 87.7133 24.3516C87.7133 23.1849 87.449 22.2677 86.9203 21.6081C86.3916 20.9403 85.6615 20.6084 84.7282 20.6084C83.7948 20.6084 83.0627 20.9423 82.536 21.6081C82.0073 22.2698 81.743 23.1849 81.743 24.3516C81.743 25.5183 82.0073 26.4355 82.536 27.0951C83.0648 27.763 83.7948 28.0948 84.7282 28.0948C85.6615 28.0948 86.3936 27.7609 86.9203 27.0951Z" fill="#2C3330"/>
<path d="M90.609 19.7509C91.1906 19.7509 91.6644 20.2291 91.6644 20.8207V21.4102H91.7742C92.0162 20.8413 92.4046 20.3961 92.9374 20.0766C93.4722 19.7571 94.0985 19.5984 94.8184 19.5984C95.8311 19.5984 96.614 19.8911 97.1711 20.4785C97.7283 21.0722 98.0069 21.9029 98.0069 22.9747V28.9606H96.9027V23.2571C96.9027 21.4906 96.1117 20.6063 94.5316 20.6063C93.6816 20.6063 92.9984 20.8681 92.4819 21.3937C91.9694 21.9235 91.7152 22.6222 91.7152 23.488V28.9606H90.611V19.753L90.609 19.7509Z" fill="#2C3330"/>
<path d="M100.884 20.3403C101.515 19.8435 102.289 19.5962 103.213 19.5962C104.136 19.5962 104.888 19.8106 105.49 20.2372C106.092 20.6701 106.444 21.2514 106.544 21.981H105.456C105.354 21.5482 105.104 21.204 104.705 20.9463C104.301 20.6845 103.8 20.5526 103.205 20.5526C102.609 20.5526 102.094 20.701 101.677 20.9978C101.256 21.305 101.045 21.6884 101.045 22.1439C101.045 22.8447 101.647 23.3415 102.851 23.6321L104.099 23.931C104.994 24.1474 105.649 24.4463 106.064 24.8297C106.491 25.2296 106.704 25.7552 106.704 26.4107C106.704 27.1981 106.367 27.8473 105.692 28.3606C105.029 28.8615 104.195 29.1129 103.194 29.1129C102.194 29.1129 101.389 28.8903 100.748 28.4451C100.108 28.0061 99.7415 27.4083 99.652 26.6498H100.799C100.923 27.1177 101.193 27.4825 101.608 27.7443C102.035 28.0184 102.576 28.1545 103.227 28.1545C103.878 28.1545 104.453 27.9978 104.896 27.6845C105.34 27.3712 105.563 26.9754 105.563 26.4972C105.563 25.7387 104.97 25.2172 103.784 24.9327L102.409 24.5988C101.555 24.3886 100.931 24.0979 100.537 23.7269C100.132 23.3394 99.9286 22.8262 99.9286 22.1872C99.9286 21.4513 100.246 20.8371 100.882 20.3403H100.884Z" fill="#2C3330"/>
<path d="M49.898 8.42847C49.898 10.0074 49.4201 11.2647 48.4643 12.1985C47.5147 13.1384 46.2397 13.6084 44.6434 13.6084C42.9169 13.6084 41.5484 13.0271 40.5357 11.8646C39.523 10.702 39.0167 9.12516 39.0167 7.13607C39.0167 5.14697 39.525 3.59898 40.5438 2.42613C41.5606 1.2574 42.923 0.674072 44.6271 0.674072C46.0099 0.674072 47.169 1.04097 48.1024 1.77684C49.0358 2.51682 49.6072 3.5124 49.8146 4.76152H47.9173C47.4272 3.22795 46.3312 2.46117 44.6271 2.46117C43.5026 2.46117 42.6078 2.8796 41.9449 3.71853C41.282 4.56158 40.9505 5.69732 40.9505 7.12164C40.9505 8.54596 41.284 9.72087 41.9551 10.5577C42.618 11.4008 43.5249 11.8233 44.6718 11.8233C45.6662 11.8233 46.4776 11.5409 47.1019 10.9762C47.7262 10.4114 48.0414 9.67346 48.0475 8.76239V8.49649H44.9098V6.88872H49.9041V8.42847H49.898Z" fill="#2C3330"/>
<path d="M51.647 3.99883H51.9845C52.7634 3.99883 53.3938 4.63782 53.3938 5.42727H53.528C53.6581 4.96555 53.953 4.58629 54.4146 4.28947C54.8762 3.99265 55.4049 3.84424 56.0007 3.84424C56.3444 3.84424 56.6108 3.86897 56.8019 3.9205V5.73234C56.5945 5.65813 56.259 5.62103 55.7974 5.62103C55.1121 5.62103 54.5529 5.82303 54.1197 6.2291C53.6805 6.6331 53.4629 7.16078 53.4629 7.81007V13.3074H51.649V3.99883H51.647Z" fill="#2C3330"/>
<path d="M65.4383 10.7966C65.2309 11.6335 64.7774 12.2931 64.0799 12.7713C63.3763 13.2495 62.5019 13.4886 61.4567 13.4886C60.141 13.4886 59.1059 13.0578 58.3535 12.1983C57.595 11.3429 57.2148 10.1721 57.2148 8.68387C57.2148 7.19565 57.5971 6.0125 58.3617 5.13647C59.1263 4.25838 60.1552 3.81934 61.4485 3.81934C62.7419 3.81934 63.7281 4.23571 64.4602 5.06845C65.1861 5.90119 65.5481 7.0493 65.5481 8.51485V9.15589H59.0612V9.25895C59.0897 10.0793 59.3235 10.7286 59.7607 11.2089C60.2 11.6871 60.7816 11.9262 61.5075 11.9262C62.6158 11.9262 63.3438 11.549 63.6915 10.7987H65.4383V10.7966ZM59.7872 6.04342C59.354 6.48246 59.112 7.06579 59.0612 7.79547H63.6996C63.6773 7.05961 63.4638 6.47628 63.0591 6.04342C62.6483 5.60437 62.1094 5.38588 61.4404 5.38588C60.7714 5.38588 60.2203 5.60437 59.7872 6.04342Z" fill="#2C3330"/>
<path d="M74.8534 10.7966C74.646 11.6335 74.1925 12.2931 73.495 12.7713C72.7914 13.2495 71.917 13.4886 70.8718 13.4886C69.5561 13.4886 68.521 13.0578 67.7686 12.1983C67.0101 11.3429 66.6299 10.1721 66.6299 8.68387C66.6299 7.19565 67.0122 6.0125 67.7768 5.13647C68.5414 4.25838 69.5703 3.81934 70.8636 3.81934C72.157 3.81934 73.1432 4.23571 73.8753 5.06845C74.6012 5.90119 74.9632 7.0493 74.9632 8.51485V9.15589H68.4763V9.25895C68.5048 10.0793 68.7386 10.7286 69.1758 11.2089C69.6151 11.6871 70.1967 11.9262 70.9226 11.9262C72.0309 11.9262 72.7589 11.549 73.1066 10.7987H74.8534V10.7966ZM69.2023 6.04342C68.7691 6.48246 68.5271 7.06579 68.4763 7.79547H73.1147C73.0924 7.05961 72.8788 6.47628 72.4742 6.04342C72.0634 5.60437 71.5245 5.38588 70.8555 5.38588C70.1865 5.38588 69.6354 5.60437 69.2023 6.04342Z" fill="#2C3330"/>
<path d="M76.5005 3.99866H76.8381C77.6169 3.99866 78.2473 4.63765 78.2473 5.4271V5.47864H78.3815C78.6073 4.9592 78.9713 4.5552 79.4776 4.26456C79.99 3.96775 80.592 3.81934 81.2834 3.81934C82.3062 3.81934 83.0972 4.11822 83.6544 4.71804C84.2116 5.32198 84.4902 6.1774 84.4902 7.28222V13.3093H82.6763V7.74394C82.6763 6.24954 82.0073 5.50337 80.6692 5.50337C79.9372 5.50337 79.3637 5.71362 78.9489 6.13617C78.528 6.55873 78.3165 7.13381 78.3165 7.86349V13.3093H76.5026V3.99866H76.5005Z" fill="#2C3330"/>
<path d="M92.5815 13.3094H90.6924V0.9729H95.5077C96.7339 0.9729 97.7121 1.31507 98.4421 1.9994C99.1721 2.68992 99.5381 3.61335 99.5381 4.76971C99.5381 5.60245 99.3307 6.33213 98.9139 6.95875C98.4929 7.59155 97.9134 8.03678 97.1772 8.29237L99.9103 13.3115H97.7263L95.2474 8.6098H92.5815V13.3115V13.3094ZM92.5815 6.97318H95.2983C96.0283 6.97318 96.5936 6.7856 96.9942 6.4084C97.3989 6.03119 97.6022 5.49939 97.6022 4.80887C97.6022 4.11836 97.3908 3.60923 96.9698 3.2279C96.5529 2.84657 95.9795 2.65487 95.2495 2.65487H92.5835V6.97318H92.5815Z" fill="#2C3330"/>
<path d="M108.878 10.7966C108.671 11.6335 108.217 12.2931 107.52 12.7713C106.816 13.2495 105.942 13.4886 104.896 13.4886C103.581 13.4886 102.546 13.0578 101.793 12.1983C101.035 11.3429 100.655 10.1721 100.655 8.68387C100.655 7.19565 101.037 6.0125 101.801 5.13647C102.566 4.25838 103.595 3.81934 104.888 3.81934C106.182 3.81934 107.168 4.23571 107.9 5.06845C108.626 5.90119 108.988 7.0493 108.988 8.51485V9.15589H102.501V9.25895C102.529 10.0793 102.763 10.7286 103.2 11.2089C103.64 11.6871 104.221 11.9262 104.947 11.9262C106.056 11.9262 106.784 11.549 107.131 10.7987H108.878V10.7966ZM103.227 6.04342C102.794 6.48246 102.552 7.06579 102.501 7.79547H107.139C107.117 7.05961 106.904 6.47628 106.499 6.04342C106.088 5.60437 105.549 5.38588 104.88 5.38588C104.211 5.38588 103.66 5.60437 103.227 6.04342Z" fill="#2C3330"/>
<path d="M127.712 3.99866H128.05C128.829 3.99866 129.459 4.63765 129.459 5.4271V5.47864H129.593C129.819 4.9592 130.183 4.5552 130.689 4.26456C131.202 3.96775 131.804 3.81934 132.495 3.81934C133.518 3.81934 134.309 4.11822 134.866 4.71804C135.423 5.32198 135.702 6.1774 135.702 7.28222V13.3093H133.888V7.74394C133.888 6.24954 133.219 5.50337 131.881 5.50337C131.149 5.50337 130.576 5.71362 130.161 6.13617C129.74 6.55873 129.528 7.13381 129.528 7.86349V13.3093H127.714V3.99866H127.712Z" fill="#2C3330"/>
<path d="M145.325 13.3095H143.588V11.8295H143.444C142.976 12.9364 142.018 13.4888 140.568 13.4888C139.545 13.4888 138.748 13.1858 138.181 12.5819C137.607 11.978 137.321 11.1246 137.321 10.026V3.99889H139.135V9.56424C139.135 11.0463 139.81 11.7863 141.158 11.7863C141.888 11.7863 142.466 11.5781 142.886 11.1617C143.307 10.7453 143.519 10.1723 143.519 9.44263V3.99683H145.325V13.3075V13.3095Z" fill="#2C3330"/>
<path d="M154.89 10.7966C154.683 11.6335 154.229 12.2931 153.532 12.7713C152.828 13.2495 151.954 13.4886 150.909 13.4886C149.593 13.4886 148.558 13.0578 147.805 12.1983C147.047 11.3429 146.667 10.1721 146.667 8.68387C146.667 7.19565 147.049 6.0125 147.814 5.13647C148.578 4.25838 149.607 3.81934 150.9 3.81934C152.194 3.81934 153.18 4.23571 153.912 5.06845C154.638 5.90119 155 7.0493 155 8.51485V9.15589H148.513V9.25895C148.542 10.0793 148.775 10.7286 149.213 11.2089C149.652 11.6871 150.233 11.9262 150.959 11.9262C152.068 11.9262 152.796 11.549 153.143 10.7987H154.89V10.7966ZM149.239 6.04342C148.806 6.48246 148.564 7.06579 148.513 7.79547H153.152C153.129 7.05961 152.916 6.47628 152.511 6.04342C152.1 5.60437 151.561 5.38588 150.892 5.38588C150.223 5.38588 149.672 5.60437 149.239 6.04342Z" fill="#2C3330"/>
<path d="M111.131 3.99878L113.417 11.343H113.561L115.839 3.99878H117.762L114.456 13.3094H112.508L109.193 3.99878H111.133H111.131Z" fill="#2C3330"/>
<path d="M126.171 10.7966C125.964 11.6335 125.51 12.2931 124.813 12.7713C124.109 13.2495 123.235 13.4886 122.189 13.4886C120.874 13.4886 119.839 13.0578 119.086 12.1983C118.328 11.3429 117.948 10.1721 117.948 8.68387C117.948 7.19565 118.33 6.0125 119.094 5.13647C119.859 4.25838 120.888 3.81934 122.181 3.81934C123.475 3.81934 124.461 4.23571 125.193 5.06845C125.919 5.90119 126.281 7.0493 126.281 8.51485V9.15589H119.794V9.25895C119.822 10.0793 120.056 10.7286 120.493 11.2089C120.933 11.6871 121.514 11.9262 122.24 11.9262C123.349 11.9262 124.076 11.549 124.424 10.7987H126.171V10.7966ZM120.52 6.04342C120.087 6.48246 119.845 7.06579 119.794 7.79547H124.432C124.41 7.05961 124.196 6.47628 123.792 6.04342C123.381 5.60437 122.842 5.38588 122.173 5.38588C121.504 5.38588 120.953 5.60437 120.52 6.04342Z" fill="#2C3330"/>
<path d="M24.4021 14.2224C24.7864 14.2224 25.1728 14.2451 25.5571 14.2884C25.5998 14.6779 25.6222 15.0696 25.6222 15.4592C25.6222 21.2554 20.9695 25.9715 15.2513 25.9715C14.867 25.9715 14.4806 25.9488 14.0963 25.9055C14.0536 25.516 14.0312 25.1243 14.0312 24.7347C14.0312 23.9577 14.1166 23.2032 14.2752 22.4736C14.4704 21.8284 14.686 21.1585 14.9178 20.4886C16.5304 16.8031 20.1744 14.2224 24.4021 14.2224Z" fill="#09CE74"/>
<path d="M15.0233 -0.0001281C6.81814 0.123546 0.113663 6.92565 -0.000213347 15.2428C-0.0652856 20.1197 2.08617 24.6523 5.88069 27.6535C7.22891 28.7192 8.72963 29.5416 10.3422 30.0961C11.7982 30.597 13.3213 30.8711 14.8729 30.9082L14.9928 30.9123C15.0782 30.9144 15.1637 30.9185 15.2511 30.9185C23.6617 30.9185 30.5024 23.9845 30.5024 15.4592C30.5024 15.3726 30.5004 15.2881 30.4963 15.2036L30.4922 15.0779C30.4536 13.5051 30.1852 11.9613 29.689 10.4854L29.5914 10.1968L29.3067 10.0979C27.8507 9.59702 26.3276 9.32287 24.776 9.28577L24.6581 9.28165C24.5727 9.27959 24.4852 9.27546 24.3978 9.27546C16.2414 9.27546 9.5593 15.7993 9.1648 23.9701C8.25786 23.3022 7.45259 22.4818 6.80187 21.5584C5.54109 19.7692 4.87614 17.6606 4.87614 15.4592C4.87614 9.66298 9.5288 4.94685 15.247 4.94685C15.8794 4.94685 16.6725 5.12618 17.4778 5.37765C20.0725 6.19184 22.8971 5.4601 24.7313 3.42772L24.772 3.38237C22.043 1.15829 18.6287 -0.0516592 15.0233 -0.0001281ZM14.275 22.4715C14.4255 21.781 14.641 21.1173 14.9176 20.4866C16.5302 16.8011 20.1742 14.2204 24.4019 14.2204C24.7862 14.2204 25.1726 14.2431 25.5569 14.2863C25.5996 14.6759 25.622 15.0676 25.622 15.4571C25.622 21.2533 20.9693 25.9695 15.2511 25.9695C14.8668 25.9695 14.4804 25.9468 14.0961 25.9035C14.0534 25.5139 14.031 25.1223 14.031 24.7327C14.031 23.9556 14.1164 23.2012 14.275 22.4715Z" fill="#2C3330"/>
</g>
<defs>
<clipPath id="clip0_184_67">
<rect width="155" height="30.9186" fill="white"/>
</clipPath>
</defs>
</svg>
