<svg width="199" height="40" viewBox="0 0 199 40" fill="none" xmlns="http://www.w3.org/2000/svg">
<g clip-path="url(#clip0_172_238)">
<path d="M64.0628 10.6754C64.0628 12.6753 63.4493 14.2678 62.2222 15.4505C61.003 16.641 59.3661 17.2363 57.3166 17.2363C55.1001 17.2363 53.343 16.5 52.0429 15.0276C50.7427 13.5551 50.0927 11.5579 50.0927 9.03849C50.0927 6.51911 50.7453 4.55843 52.0533 3.07291C53.3587 1.5926 55.1079 0.85376 57.2957 0.85376C59.0711 0.85376 60.5592 1.31848 61.7575 2.25052C62.9559 3.18778 63.6895 4.44878 63.9558 6.0309H61.52C60.8908 4.08849 59.4836 3.11729 57.2957 3.11729C55.852 3.11729 54.7033 3.64727 53.8521 4.70985C53.001 5.77765 52.5755 7.21618 52.5755 9.02022C52.5755 10.8243 53.0037 12.3124 53.8652 13.3724C54.7163 14.4402 55.8807 14.9754 57.3532 14.9754C58.6298 14.9754 59.6715 14.6177 60.473 13.9023C61.2745 13.187 61.6792 12.2523 61.687 11.0984V10.7616H57.6586V8.7252H64.0707V10.6754H64.0628Z" fill="white"/>
<path d="M66.3081 5.06495H66.7415C67.7414 5.06495 68.5508 5.87428 68.5508 6.8742H68.7231C68.8902 6.28939 69.2687 5.80901 69.8614 5.43306C70.454 5.05712 71.1328 4.86914 71.8977 4.86914C72.339 4.86914 72.681 4.90047 72.9264 4.96574V7.2606C72.6601 7.16661 72.2293 7.11962 71.6367 7.11962C70.7568 7.11962 70.0389 7.37547 69.4828 7.88979C68.9189 8.4015 68.6395 9.06985 68.6395 9.89224V16.8551H66.3107V5.06495H66.3081Z" fill="white"/>
<path d="M84.0143 13.6753C83.748 14.7353 83.1658 15.5707 82.2703 16.1764C81.367 16.7821 80.2443 17.085 78.9024 17.085C77.2132 17.085 75.8844 16.5393 74.9184 15.4506C73.9446 14.3672 73.4564 12.8843 73.4564 10.9993C73.4564 9.11432 73.9472 7.61574 74.9288 6.50617C75.9105 5.39398 77.2315 4.83789 78.892 4.83789C80.5524 4.83789 81.8186 5.36526 82.7585 6.42001C83.6905 7.47476 84.1553 8.92895 84.1553 10.7852V11.5971H75.8269V11.7277C75.8635 12.7668 76.1637 13.5892 76.725 14.1975C77.289 14.8032 78.0356 15.106 78.9677 15.106C80.3905 15.106 81.3252 14.6282 81.7716 13.6779H84.0143V13.6753ZM76.759 7.6549C76.2029 8.21099 75.8922 8.94984 75.8269 9.87405H81.7821C81.7534 8.94201 81.4792 8.20316 80.9597 7.6549C80.4323 7.09881 79.7405 6.82207 78.8815 6.82207C78.0226 6.82207 77.3151 7.09881 76.759 7.6549Z" fill="white"/>
<path d="M96.1021 13.6753C95.8358 14.7353 95.2536 15.5707 94.3581 16.1764C93.4548 16.7821 92.3322 17.085 90.9902 17.085C89.3011 17.085 87.9722 16.5393 87.0062 15.4506C86.0324 14.3672 85.5442 12.8843 85.5442 10.9993C85.5442 9.11432 86.035 7.61574 87.0167 6.50617C87.9983 5.39398 89.3194 4.83789 90.9798 4.83789C92.6402 4.83789 93.9065 5.36526 94.8463 6.42001C95.7784 7.47476 96.2431 8.92895 96.2431 10.7852V11.5971H87.9148V11.7277C87.9513 12.7668 88.2515 13.5892 88.8129 14.1975C89.3768 14.8032 90.1235 15.106 91.0555 15.106C92.4784 15.106 93.413 14.6282 93.8595 13.6779H96.1021V13.6753ZM88.8468 7.6549C88.2907 8.21099 87.98 8.94984 87.9148 9.87405H93.8699C93.8412 8.94201 93.5671 8.20316 93.0475 7.6549C92.5201 7.09881 91.8283 6.82207 90.9693 6.82207C90.1104 6.82207 89.4029 7.09881 88.8468 7.6549Z" fill="white"/>
<path d="M98.2168 5.06503H98.6502C99.6501 5.06503 100.459 5.87436 100.459 6.87428V6.93955H100.632C100.922 6.28164 101.389 5.76993 102.039 5.40181C102.697 5.02587 103.47 4.83789 104.357 4.83789C105.671 4.83789 106.686 5.21645 107.401 5.97618C108.117 6.74113 108.474 7.8246 108.474 9.22397V16.8578H106.146V9.80878C106.146 7.91598 105.287 6.97088 103.569 6.97088C102.629 6.97088 101.893 7.23718 101.36 7.77239C100.82 8.30759 100.548 9.03599 100.548 9.9602V16.8578H98.2194V5.06503H98.2168Z" fill="white"/>
<path d="M51.5129 32.6189C51.6147 33.5144 52.0716 34.2428 52.8888 34.8067C53.6981 35.3706 54.698 35.6526 55.8886 35.6526C57.0791 35.6526 58.0137 35.3602 58.7787 34.7754C59.5306 34.2062 59.9039 33.4831 59.9039 32.6085C59.9039 31.1647 58.7421 30.1569 56.4159 29.5878L54.6302 29.1335C53.1655 28.7732 52.1029 28.2668 51.4476 27.6167C50.7897 26.9744 50.4634 26.1233 50.4634 25.0607C50.4634 23.7893 50.9568 22.7554 51.9463 21.9539C52.9436 21.1394 54.2307 20.7295 55.8128 20.7295C57.301 20.7295 58.5463 21.1237 59.5488 21.9096C60.5514 22.6902 61.0944 23.6797 61.1727 24.878H59.6794C59.5567 24.0399 59.1442 23.3664 58.4445 22.852C57.737 22.3403 56.8467 22.0819 55.7685 22.0819C54.6902 22.0819 53.7373 22.3612 53.0298 22.9147C52.3301 23.463 51.9802 24.1626 51.9802 25.0164C51.9802 25.6952 52.2413 26.2513 52.7609 26.6846C53.2804 27.1102 54.1367 27.4705 55.3272 27.7681L56.8754 28.1571C58.4863 28.5539 59.648 29.0918 60.3634 29.7706C61.0709 30.4415 61.4234 31.3344 61.4234 32.4466C61.4234 33.812 60.9064 34.9111 59.8752 35.7492C58.8361 36.5872 57.4628 37.005 55.7606 37.005C54.0584 37.005 52.8079 36.6003 51.7531 35.791C50.6931 34.9816 50.1135 33.9243 50.0196 32.6189H51.5129Z" fill="white"/>
<path d="M64.5302 35.2506C63.5773 34.175 63.0995 32.7051 63.0995 30.8437C63.0995 28.9822 63.5773 27.5123 64.5302 26.4367C65.4753 25.3611 66.765 24.8232 68.3967 24.8232C70.0284 24.8232 71.3208 25.3611 72.2737 26.4367C73.2266 27.5123 73.7044 28.9822 73.7044 30.8437C73.7044 32.7051 73.2266 34.175 72.2737 35.2506C71.3208 36.3341 70.0284 36.8745 68.3967 36.8745C66.765 36.8745 65.4753 36.3341 64.5302 35.2506ZM71.2111 34.3186C71.8899 33.4805 72.2293 32.3213 72.2293 30.8437C72.2293 29.366 71.8899 28.2042 71.2111 27.3687C70.5323 26.5228 69.5951 26.1025 68.3967 26.1025C67.1984 26.1025 66.2585 26.5255 65.5823 27.3687C64.9035 28.2068 64.5641 29.366 64.5641 30.8437C64.5641 32.3213 64.9035 33.4831 65.5823 34.3186C66.2611 35.1645 67.1984 35.5848 68.3967 35.5848C69.5951 35.5848 70.5349 35.1619 71.2111 34.3186Z" fill="white"/>
<path d="M76.0567 20.3718H77.4743V36.6812H76.0567V20.3718Z" fill="white"/>
<path d="M89.8337 36.6786H88.4813V34.5769H88.3508C88.061 35.3001 87.5754 35.8614 86.8887 36.2661C86.2099 36.6707 85.4058 36.8717 84.4738 36.8717C83.1736 36.8717 82.1606 36.4932 81.4296 35.7335C80.6934 34.9763 80.3253 33.9294 80.3253 32.5927V25.0137H81.7429V32.2376C81.7429 33.3211 82.0092 34.1461 82.5444 34.7179C83.0718 35.287 83.8341 35.5742 84.8288 35.5742C85.9175 35.5742 86.7895 35.2452 87.4396 34.5899C88.0897 33.9346 88.4134 33.0522 88.4134 31.9479V25.0163H89.8311V36.6786H89.8337Z" fill="white"/>
<path d="M94.8281 23.4473V25.0163H97.6007V26.2173H94.8281V33.4517C94.8281 34.167 94.9716 34.6814 95.2614 34.9999C95.5512 35.3236 96.0238 35.4881 96.6791 35.4881C97.0185 35.4881 97.3083 35.4776 97.5459 35.4568V36.6708C97.2561 36.7204 96.9167 36.7465 96.5277 36.7465C95.4076 36.7465 94.6114 36.5167 94.1336 36.0546C93.6506 35.6004 93.4078 34.8406 93.4078 33.7806V26.2225H91.5228V25.0215H93.4078V22.0322C94.191 22.0322 94.8254 22.6666 94.8254 23.4499L94.8281 23.4473Z" fill="white"/>
<path d="M99.7232 22.1028C99.5143 21.894 99.4099 21.646 99.4099 21.3562C99.4099 21.0664 99.5143 20.821 99.7232 20.6199C99.9242 20.4111 100.17 20.3066 100.459 20.3066C100.749 20.3066 100.997 20.4111 101.206 20.6199C101.415 20.8236 101.519 21.0664 101.519 21.3562C101.519 21.646 101.415 21.894 101.206 22.1028C101.005 22.3117 100.754 22.4161 100.459 22.4161C100.164 22.4161 99.9242 22.3117 99.7232 22.1028ZM99.7545 25.0165H101.172V36.6787H99.7545V25.0165Z" fill="white"/>
<path d="M104.913 35.2506C103.96 34.175 103.483 32.7051 103.483 30.8437C103.483 28.9822 103.96 27.5123 104.913 26.4367C105.859 25.3611 107.148 24.8232 108.78 24.8232C110.412 24.8232 111.704 25.3611 112.657 26.4367C113.61 27.5123 114.088 28.9822 114.088 30.8437C114.088 32.7051 113.61 34.175 112.657 35.2506C111.704 36.3341 110.412 36.8745 108.78 36.8745C107.148 36.8745 105.859 36.3341 104.913 35.2506ZM111.594 34.3186C112.273 33.4805 112.613 32.3213 112.613 30.8437C112.613 29.366 112.273 28.2042 111.594 27.3687C110.916 26.5228 109.978 26.1025 108.78 26.1025C107.582 26.1025 106.642 26.5255 105.966 27.3687C105.287 28.2068 104.947 29.366 104.947 30.8437C104.947 32.3213 105.287 33.4831 105.966 34.3186C106.644 35.1645 107.582 35.5848 108.78 35.5848C109.978 35.5848 110.918 35.1619 111.594 34.3186Z" fill="white"/>
<path d="M116.33 25.0164C117.077 25.0164 117.685 25.6221 117.685 26.3714V27.1181H117.826C118.137 26.3975 118.636 25.8336 119.32 25.4289C120.006 25.0243 120.81 24.8232 121.735 24.8232C123.035 24.8232 124.04 25.194 124.755 25.938C125.471 26.6899 125.828 27.7421 125.828 29.0997V36.6813H124.411V29.4573C124.411 27.2199 123.395 26.0999 121.366 26.0999C120.275 26.0999 119.398 26.4315 118.735 27.0972C118.077 27.7682 117.751 28.6532 117.751 29.7497V36.6813H116.333V25.019L116.33 25.0164Z" fill="white"/>
<path d="M129.522 25.763C130.332 25.1338 131.326 24.8206 132.512 24.8206C133.697 24.8206 134.663 25.0921 135.436 25.6325C136.209 26.1808 136.66 26.917 136.788 27.8412H135.391C135.261 27.2929 134.94 26.857 134.428 26.5306C133.909 26.199 133.266 26.0319 132.501 26.0319C131.736 26.0319 131.076 26.2199 130.541 26.5959C130 26.9849 129.729 27.4705 129.729 28.0475C129.729 28.9351 130.501 29.5643 132.047 29.9324L133.65 30.311C134.799 30.5851 135.639 30.9637 136.172 31.4493C136.72 31.9558 136.994 32.6215 136.994 33.4517C136.994 34.449 136.561 35.2714 135.694 35.9215C134.843 36.5559 133.773 36.8744 132.488 36.8744C131.204 36.8744 130.17 36.5925 129.348 36.0286C128.525 35.4725 128.055 34.7153 127.94 33.7546H129.413C129.572 34.3472 129.919 34.8093 130.452 35.1409C131 35.4881 131.695 35.6604 132.53 35.6604C133.365 35.6604 134.104 35.462 134.673 35.0652C135.243 34.6683 135.53 34.1671 135.53 33.5614C135.53 32.6006 134.767 31.9401 133.245 31.5798L131.48 31.1569C130.384 30.8906 129.582 30.5225 129.076 30.0525C128.556 29.5617 128.295 28.9116 128.295 28.1023C128.295 27.1702 128.703 26.3922 129.52 25.763H129.522Z" fill="white"/>
<path d="M118.863 16.8578H116.437V1.23242H122.62C124.194 1.23242 125.45 1.66581 126.387 2.53258C127.324 3.40719 127.794 4.57681 127.794 6.04144C127.794 7.09619 127.528 8.0204 126.993 8.81407C126.452 9.61557 125.708 10.1795 124.763 10.5032L128.272 16.8604H125.468L122.285 10.9053H118.863V16.8604V16.8578ZM118.863 8.83235H122.351C123.288 8.83235 124.014 8.59477 124.528 8.117C125.048 7.63923 125.309 6.96565 125.309 6.09105C125.309 5.21644 125.037 4.57158 124.497 4.08859C123.962 3.6056 123.225 3.3628 122.288 3.3628H118.865V8.83235H118.863Z" fill="white"/>
<path d="M139.785 13.6753C139.519 14.7353 138.937 15.5707 138.041 16.1764C137.138 16.7821 136.015 17.085 134.673 17.085C132.984 17.085 131.655 16.5393 130.689 15.4506C129.716 14.3672 129.227 12.8843 129.227 10.9993C129.227 9.11432 129.718 7.61574 130.7 6.50617C131.682 5.39398 133.003 4.83789 134.663 4.83789C136.323 4.83789 137.59 5.36526 138.53 6.42001C139.462 7.47476 139.926 8.92895 139.926 10.7852V11.5971H131.598V11.7277C131.635 12.7668 131.935 13.5892 132.496 14.1975C133.06 14.8032 133.807 15.106 134.739 15.106C136.162 15.106 137.096 14.6282 137.543 13.6779H139.785V13.6753ZM132.53 7.6549C131.974 8.21099 131.663 8.94984 131.598 9.87405H137.553C137.524 8.94201 137.25 8.20316 136.731 7.6549C136.203 7.09881 135.512 6.82207 134.653 6.82207C133.794 6.82207 133.086 7.09881 132.53 7.6549Z" fill="white"/>
<path d="M163.966 5.06503H164.4C165.4 5.06503 166.209 5.87436 166.209 6.87428V6.93955H166.381C166.671 6.28164 167.138 5.76993 167.788 5.40181C168.446 5.02587 169.219 4.83789 170.107 4.83789C171.42 4.83789 172.436 5.21645 173.151 5.97618C173.866 6.74113 174.224 7.8246 174.224 9.22397V16.8578H171.895V9.80878C171.895 7.91598 171.036 6.97088 169.318 6.97088C168.378 6.97088 167.642 7.23718 167.11 7.77239C166.569 8.30759 166.298 9.03599 166.298 9.9602V16.8578H163.969V5.06503H163.966Z" fill="white"/>
<path d="M186.578 16.8579H184.348V14.9834H184.163C183.563 16.3854 182.333 17.0851 180.471 17.0851C179.158 17.0851 178.135 16.7013 177.406 15.9363C176.67 15.1714 176.302 14.0905 176.302 12.699V5.06511H178.631V12.1142C178.631 13.9913 179.498 14.9286 181.229 14.9286C182.166 14.9286 182.907 14.6649 183.448 14.1375C183.988 13.6101 184.26 12.8843 184.26 11.9601V5.0625H186.578V16.8553V16.8579Z" fill="white"/>
<path d="M198.859 13.6753C198.593 14.7353 198.011 15.5707 197.115 16.1764C196.212 16.7821 195.089 17.085 193.747 17.085C192.058 17.085 190.729 16.5393 189.763 15.4506C188.789 14.3672 188.301 12.8843 188.301 10.9993C188.301 9.11432 188.792 7.61574 189.774 6.50617C190.755 5.39398 192.076 4.83789 193.737 4.83789C195.397 4.83789 196.663 5.36526 197.603 6.42001C198.535 7.47476 199 8.92895 199 10.7852V11.5971H190.672V11.7277C190.708 12.7668 191.008 13.5892 191.57 14.1975C192.134 14.8032 192.88 15.106 193.812 15.106C195.235 15.106 196.17 14.6282 196.616 13.6779H198.859V13.6753ZM191.604 7.6549C191.048 8.21099 190.737 8.94984 190.672 9.87405H196.627C196.598 8.94201 196.324 8.20316 195.804 7.6549C195.277 7.09881 194.585 6.82207 193.726 6.82207C192.867 6.82207 192.16 7.09881 191.604 7.6549Z" fill="white"/>
<path d="M142.678 5.06494L145.613 14.3671H145.798L148.722 5.06494H151.192L146.947 16.8577H144.446L140.19 5.06494H142.681H142.678Z" fill="white"/>
<path d="M161.987 13.6753C161.721 14.7353 161.139 15.5707 160.243 16.1764C159.34 16.7821 158.217 17.085 156.875 17.085C155.186 17.085 153.857 16.5393 152.891 15.4506C151.918 14.3672 151.429 12.8843 151.429 10.9993C151.429 9.11432 151.92 7.61574 152.902 6.50617C153.883 5.39398 155.205 4.83789 156.865 4.83789C158.525 4.83789 159.792 5.36526 160.731 6.42001C161.664 7.47476 162.128 8.92895 162.128 10.7852V11.5971H153.8V11.7277C153.836 12.7668 154.137 13.5892 154.698 14.1975C155.262 14.8032 156.009 15.106 156.941 15.106C158.364 15.106 159.298 14.6282 159.745 13.6779H161.987V13.6753ZM154.732 7.6549C154.176 8.21099 153.865 8.94984 153.8 9.87405H159.755C159.726 8.94201 159.452 8.20316 158.933 7.6549C158.405 7.09881 157.713 6.82207 156.855 6.82207C155.996 6.82207 155.288 7.09881 154.732 7.6549Z" fill="white"/>
<path d="M18.3276 28.4651C18.5208 27.5905 18.7975 26.7498 19.1526 25.9509C18.8523 26.802 18.5782 27.6479 18.3276 28.4651Z" fill="white"/>
<path d="M19.2883 4.92157e-05C8.75389 0.156695 0.146213 8.7722 1.07889e-05 19.3066C-0.0835335 25.4837 2.67865 31.2247 7.55033 35.026C9.28127 36.3758 11.208 37.4175 13.2783 38.1198C15.1476 38.7542 17.1031 39.1014 19.0951 39.1484L19.2492 39.1536C19.3588 39.1562 19.4685 39.1615 19.5807 39.1615C30.3788 39.1615 39.1614 30.3789 39.1614 19.5808C39.1614 19.4711 39.1588 19.3641 39.1536 19.257L39.1484 19.0978C39.0988 17.1058 38.7541 15.1503 38.1171 13.281L37.9918 12.9155L37.6263 12.7902C35.757 12.1558 33.8015 11.8085 31.8095 11.7615L31.6581 11.7563C31.5484 11.7537 31.4362 11.7485 31.3239 11.7485C20.8522 11.7485 12.2732 20.0115 11.7667 30.3606C10.6023 29.5147 9.56845 28.4756 8.733 27.306C7.11433 25.0399 6.26061 22.369 6.26061 19.5808C6.26061 12.2393 12.234 6.26587 19.5755 6.26587C20.3874 6.26587 21.4056 6.49301 22.4395 6.81152C25.7708 7.84277 29.3972 6.91595 31.7521 4.34174L31.8043 4.28431C28.3007 1.4673 23.9172 -0.0652198 19.2883 4.92157e-05ZM18.3276 28.4626C18.5207 27.588 18.7975 26.7473 19.1526 25.9484C21.2229 21.2804 25.9014 18.0117 31.3291 18.0117C31.8226 18.0117 32.3186 18.0404 32.812 18.0952C32.8669 18.5887 32.8956 19.0847 32.8956 19.5781C32.8956 26.9196 26.9222 32.893 19.5807 32.893C19.0873 32.893 18.5912 32.8643 18.0978 32.8095C18.043 32.316 18.0143 31.82 18.0143 31.3266C18.0143 30.3423 18.1239 29.3868 18.3276 28.4626Z" fill="white"/>
</g>
<defs>
<clipPath id="clip0_172_238">
<rect width="199" height="39.1614" fill="white"/>
</clipPath>
</defs>
</svg>
