<svg width="80" height="8" viewBox="0 0 80 8" fill="none" xmlns="http://www.w3.org/2000/svg">
<g clip-path="url(#clip0_17_12092)">
<path d="M15.7051 5.17375C15.6692 6.70573 16.7757 7.17609 18.133 7.17609C18.9169 7.17609 20.104 6.75054 20.104 5.66202C20.104 4.81988 19.2573 4.48392 18.572 4.31818L16.9146 3.91053C16.0187 3.69103 15.2348 3.27444 15.2348 2.11874C15.2348 1.38858 15.6827 0.0223389 17.797 0.0223389C19.2708 0.0223389 20.5609 0.8152 20.5519 2.33823H19.8442C19.7994 1.20044 18.8631 0.627059 17.8105 0.627059C16.8384 0.627059 15.9425 1.00333 15.9425 2.10977C15.9425 2.80857 16.4666 3.09975 17.0713 3.24309L18.8856 3.69104C19.9382 3.97325 20.8117 4.43464 20.8117 5.65306C20.8117 6.16372 20.6057 7.78081 17.9672 7.78081C16.2023 7.78081 14.9122 6.98794 14.9929 5.17375H15.7051Z" fill="#2C3330"/>
<path d="M25.0582 0.0223389C27.392 0.0223389 28.5612 1.86788 28.5612 3.90156C28.5612 5.93525 27.392 7.78081 25.0582 7.78081C22.7244 7.78081 21.5418 5.93525 21.5418 3.90156C21.5418 1.86788 22.711 0.0223389 25.0582 0.0223389ZM25.0582 7.18952C27.0158 7.18952 27.8534 5.54107 27.8534 3.91501C27.8534 2.28896 27.0158 0.64051 25.0582 0.64051C23.1007 0.64051 22.2541 2.28896 22.2541 3.91501C22.2541 5.54107 23.0873 7.17609 25.0582 7.17609V7.18952Z" fill="#2C3330"/>
<path d="M29.6721 0.179199H30.3799V7.01938H34.5503V7.62413H29.6721V0.179199Z" fill="#2C3330"/>
<path d="M35.1953 0.179199H35.9031V4.78861C35.9031 6.51769 36.7184 7.17618 38.0846 7.17618C39.4508 7.17618 40.284 6.51769 40.2706 4.78861V0.179199H40.9828V4.94538C40.9828 6.47736 40.1586 7.7809 38.0846 7.7809C36.0106 7.7809 35.1953 6.47736 35.1953 4.94538V0.179199Z" fill="#2C3330"/>
<path d="M41.61 0.179199H47.5094V0.783946H44.9024V7.62413H44.1902V0.783946H41.5965L41.61 0.179199Z" fill="#2C3330"/>
<path d="M48.262 0.179199H48.9697V7.62413H48.262V0.179199Z" fill="#2C3330"/>
<path d="M53.6418 0.0223389C55.9801 0.0223389 57.1448 1.86788 57.1448 3.90156C57.1448 5.93525 55.9801 7.78081 53.6418 7.78081C51.3036 7.78081 50.1299 5.93525 50.1299 3.90156C50.1299 1.86788 51.2946 0.0223389 53.6418 0.0223389ZM53.6418 7.18952C55.6039 7.18952 56.437 5.54107 56.437 3.91501C56.437 2.28896 55.6039 0.64051 53.6418 0.64051C51.6798 0.64051 50.8377 2.28896 50.8377 3.91501C50.8377 5.54107 51.6709 7.17609 53.6418 7.17609V7.18952Z" fill="#2C3330"/>
<path d="M58.2423 0.179199H59.0352L63.3713 6.47736V0.179199H64.0791V7.62413H63.2862L58.95 1.32595H58.9277V7.62413H58.2199L58.2423 0.179199Z" fill="#2C3330"/>
<path d="M65.9291 5.17375C65.8977 6.70573 67.0042 7.17609 68.357 7.17609C69.1409 7.17609 70.328 6.75054 70.328 5.66202C70.328 4.81988 69.4813 4.48392 68.796 4.31818L67.1386 3.91053C66.2427 3.69103 65.4588 3.27444 65.4588 2.11874C65.4588 1.38858 65.9067 0.0223389 68.0255 0.0223389C69.4948 0.0223389 70.7894 0.8152 70.7759 2.33823H70.0682C70.0279 1.20044 69.0872 0.627059 68.0345 0.627059C67.0624 0.627059 66.1665 1.00333 66.1665 2.10977C66.1665 2.80857 66.6906 3.09975 67.2954 3.24309L69.0871 3.69104C70.1398 3.97325 71.0134 4.43464 71.0134 5.65306C71.0134 6.16372 70.8073 7.78081 68.1688 7.78081C66.4039 7.78081 65.1139 6.98794 65.1945 5.17375H65.9291Z" fill="#2C3330"/>
<path d="M6.35188 4.811C6.35188 6.82229 5.16483 7.80329 3.17146 7.80329C1.17809 7.80329 0 6.83125 0 4.811V0.179199H1.63951V4.811C1.63951 5.62179 1.84553 6.4236 3.17146 6.4236C4.3406 6.4236 4.71243 5.91295 4.71243 4.811V0.179199H6.35188V4.811Z" fill="#FF4615"/>
<path d="M14.1955 3.28347C14.2227 3.4989 14.2362 3.71583 14.2358 3.93297C14.2358 6.08313 12.892 7.80326 10.5761 7.80326C8.26017 7.80326 6.91631 6.08313 6.91631 3.93297C6.91631 1.78282 8.26017 0 10.5761 0C12.6501 0 13.9536 1.39313 14.1955 3.28347ZM10.5761 6.41911C12.0453 6.41911 12.6008 5.16934 12.6008 3.92852C12.6008 2.6877 12.0453 1.37521 10.5761 1.37521C9.10679 1.37521 8.55581 2.62499 8.55581 3.92852C8.55581 5.23205 9.10679 6.42357 10.5761 6.42357V6.41911Z" fill="#FF4615"/>
<path d="M76.0393 3.69113L73.2082 0.904906C73.1537 0.856819 73.0838 0.829789 73.0112 0.828735C72.9574 0.828735 72.8544 0.828731 72.8544 1.04823V2.10541L73.2172 2.46824L74.467 3.69113C74.495 3.71673 74.5173 3.74788 74.5326 3.78259C74.5479 3.81729 74.5557 3.8548 74.5557 3.89272C74.5557 3.93064 74.5479 3.96814 74.5326 4.00284C74.5173 4.03755 74.495 4.0687 74.467 4.0943L73.1814 5.36197L72.8678 5.67554V6.73718C72.8678 6.92532 72.9529 6.94773 73.0336 6.94773C73.1021 6.94712 73.1683 6.92344 73.2217 6.88053L76.0527 4.0943C76.0796 4.06802 76.1009 4.03664 76.1154 4.00202C76.13 3.96741 76.1374 3.93026 76.1374 3.89272C76.1374 3.85517 76.13 3.81799 76.1154 3.78338C76.1009 3.74877 76.0796 3.71741 76.0527 3.69113H76.0393Z" fill="#2C3330"/>
<path d="M79.3049 3.62386L75.8825 0.259786C75.8071 0.193241 75.7099 0.156577 75.6093 0.156739C75.5063 0.156739 75.3763 0.188096 75.3763 0.465824V1.73801L77.3697 3.70451C77.3965 3.73079 77.4178 3.76215 77.4324 3.79676C77.4469 3.83137 77.4544 3.86852 77.4544 3.90607C77.4544 3.94361 77.4469 3.98079 77.4324 4.0154C77.4178 4.05001 77.3965 4.08137 77.3697 4.10765L75.3763 6.07415V7.34185C75.3763 7.55239 75.4525 7.65094 75.6182 7.65094C75.7154 7.65139 75.8094 7.61633 75.8825 7.55238L79.3049 4.18379C79.3421 4.14785 79.3717 4.10469 79.3917 4.05693C79.4117 4.00918 79.4218 3.95785 79.4213 3.90607C79.4217 3.85365 79.4115 3.80169 79.3915 3.75323C79.3715 3.70478 79.3421 3.66079 79.3049 3.62386Z" fill="#FF4615"/>
</g>
<defs>
<clipPath id="clip0_17_12092">
<rect width="79.4213" height="7.80327" fill="white"/>
</clipPath>
</defs>
</svg>
